<svg width="32" height="32" viewBox="0 0 32 32" fill="none" xmlns="http://www.w3.org/2000/svg">
<path fill-rule="evenodd" clip-rule="evenodd" d="M10.7589 4.069C11.9852 4.01255 12.3762 4 15.5 4C18.6238 4 19.0148 4.01359 20.2401 4.069C21.4654 4.12441 22.3017 4.31991 23.0335 4.60323C23.7999 4.89282 24.4951 5.3455 25.0701 5.93095C25.6555 6.50491 26.1072 7.19909 26.3957 7.96645C26.6801 8.69827 26.8745 9.53464 26.931 10.7578C26.9875 11.9862 27 12.3772 27 15.5C27 18.6238 26.9864 19.0148 26.931 20.2411C26.8756 21.4643 26.6801 22.3007 26.3957 23.0325C26.1072 23.8 25.6548 24.4953 25.0701 25.0701C24.4951 25.6555 23.7999 26.1072 23.0335 26.3957C22.3017 26.6801 21.4654 26.8745 20.2422 26.931C19.0148 26.9875 18.6238 27 15.5 27C12.3762 27 11.9852 26.9864 10.7589 26.931C9.53568 26.8756 8.69932 26.6801 7.9675 26.3957C7.20005 26.1071 6.50472 25.6548 5.92991 25.0701C5.34485 24.4958 4.8921 23.8008 4.60323 23.0335C4.31991 22.3017 4.12545 21.4654 4.069 20.2422C4.01255 19.0138 4 18.6228 4 15.5C4 12.3762 4.01359 11.9852 4.069 10.7599C4.12441 9.53464 4.31991 8.69827 4.60323 7.96645C4.89253 7.19918 5.34562 6.50419 5.93095 5.92991C6.50495 5.34498 7.19958 4.89224 7.96645 4.60323C8.69827 4.31991 9.53464 4.12545 10.7578 4.069H10.7589ZM20.147 6.139C18.9343 6.08359 18.5705 6.07209 15.5 6.07209C12.4295 6.07209 12.0657 6.08359 10.853 6.139C9.73118 6.19023 9.12273 6.37736 8.71709 6.53523C8.18077 6.74432 7.79709 6.99209 7.39459 7.39459C7.01305 7.76578 6.71942 8.21766 6.53523 8.71709C6.37736 9.12273 6.19023 9.73118 6.139 10.853C6.08359 12.0657 6.07209 12.4295 6.07209 15.5C6.07209 18.5705 6.08359 18.9343 6.139 20.147C6.19023 21.2688 6.37736 21.8773 6.53523 22.2829C6.71923 22.7816 7.013 23.2343 7.39459 23.6054C7.76573 23.987 8.21841 24.2808 8.71709 24.4648C9.12273 24.6226 9.73118 24.8098 10.853 24.861C12.0657 24.9164 12.4285 24.9279 15.5 24.9279C18.5715 24.9279 18.9343 24.9164 20.147 24.861C21.2688 24.8098 21.8773 24.6226 22.2829 24.4648C22.8192 24.2557 23.2029 24.0079 23.6054 23.6054C23.987 23.2343 24.2808 22.7816 24.4648 22.2829C24.6226 21.8773 24.8098 21.2688 24.861 20.147C24.9164 18.9343 24.9279 18.5705 24.9279 15.5C24.9279 12.4295 24.9164 12.0657 24.861 10.853C24.8098 9.73118 24.6226 9.12273 24.4648 8.71709C24.2557 8.18077 24.0079 7.79709 23.6054 7.39459C23.2342 7.01307 22.7823 6.71945 22.2829 6.53523C21.8773 6.37736 21.2688 6.19023 20.147 6.139ZM14.0311 19.0451C14.8515 19.3866 15.7649 19.4327 16.6154 19.1755C17.466 18.9184 18.2008 18.3739 18.6945 17.6351C19.1882 16.8963 19.4101 16.009 19.3222 15.1248C19.2344 14.2406 18.8423 13.4143 18.213 12.787C17.8117 12.3861 17.3266 12.0791 16.7925 11.8881C16.2584 11.6971 15.6886 11.627 15.1242 11.6826C14.5597 11.7383 14.0146 11.9185 13.5281 12.2101C13.0416 12.5017 12.6258 12.8976 12.3106 13.3692C11.9955 13.8408 11.7888 14.3764 11.7055 14.9375C11.6222 15.4986 11.6644 16.0711 11.8289 16.6139C11.9935 17.1568 12.2763 17.6564 12.6571 18.0768C13.0379 18.4971 13.5072 18.8279 14.0311 19.0451ZM11.3203 11.3203C11.8692 10.7714 12.5208 10.336 13.2379 10.0389C13.9551 9.74187 14.7238 9.58897 15.5 9.58897C16.2762 9.58897 17.0449 9.74187 17.7621 10.0389C18.4792 10.336 19.1308 10.7714 19.6797 11.3203C20.2286 11.8692 20.664 12.5208 20.9611 13.2379C21.2581 13.9551 21.411 14.7238 21.411 15.5C21.411 16.2762 21.2581 17.0449 20.9611 17.7621C20.664 18.4792 20.2286 19.1308 19.6797 19.6797C18.5712 20.7883 17.0677 21.411 15.5 21.411C13.9323 21.411 12.4288 20.7883 11.3203 19.6797C10.2117 18.5712 9.58897 17.0677 9.58897 15.5C9.58897 13.9323 10.2117 12.4288 11.3203 11.3203ZM22.722 10.4693C22.858 10.341 22.9669 10.1867 23.0422 10.0155C23.1175 9.84437 23.1578 9.65985 23.1605 9.47288C23.1632 9.28591 23.1284 9.1003 23.0581 8.92703C22.9878 8.75376 22.8835 8.59635 22.7512 8.46413C22.619 8.33191 22.4616 8.22756 22.2883 8.15727C22.1151 8.08697 21.9294 8.05216 21.7425 8.05488C21.5555 8.05761 21.371 8.09782 21.1998 8.17314C21.0287 8.24845 20.8744 8.35735 20.7461 8.49336C20.4966 8.75789 20.3599 9.10926 20.3652 9.47288C20.3705 9.8365 20.5173 10.1837 20.7745 10.4409C21.0316 10.698 21.3789 10.8448 21.7425 10.8501C22.1061 10.8554 22.4575 10.7188 22.722 10.4693Z" fill="#B28F58"/>
</svg>
