<svg width="32" height="32" viewBox="0 0 32 32" fill="none" xmlns="http://www.w3.org/2000/svg">
<path d="M16.0003 2.57153C22.1546 2.57153 27.1431 7.5601 27.1431 13.7144C27.1431 18.423 23.8346 23.5544 17.3031 29.1635C16.94 29.4755 16.4769 29.6469 15.9981 29.6464C15.5194 29.646 15.0566 29.4739 14.694 29.1612L14.262 28.7864C8.01971 23.3235 4.85742 18.3178 4.85742 13.7144C4.85742 7.5601 9.84599 2.57153 16.0003 2.57153ZM16.0003 4.28582C13.4997 4.28582 11.1015 5.27918 9.33327 7.04738C7.56507 8.81558 6.57171 11.2138 6.57171 13.7144C6.57171 17.7167 9.48371 22.3281 15.3877 27.4938L15.814 27.863C15.8658 27.9075 15.9319 27.932 16.0003 27.932C16.0686 27.932 16.1347 27.9075 16.1866 27.863C22.3763 22.5464 25.4288 17.8115 25.4288 13.7144C25.4288 12.4762 25.185 11.2502 24.7111 10.1062C24.2373 8.96231 23.5428 7.92291 22.6673 7.04738C21.7918 6.17186 20.7524 5.47736 19.6084 5.00353C18.4645 4.5297 17.2385 4.28582 16.0003 4.28582ZM16.0003 9.42868C17.1369 9.42868 18.227 9.88021 19.0307 10.6839C19.8345 11.4877 20.286 12.5777 20.286 13.7144C20.286 14.851 19.8345 15.9411 19.0307 16.7448C18.227 17.5486 17.1369 18.0001 16.0003 18.0001C14.8636 18.0001 13.7735 17.5486 12.9698 16.7448C12.1661 15.9411 11.7146 14.851 11.7146 13.7144C11.7146 12.5777 12.1661 11.4877 12.9698 10.6839C13.7735 9.88021 14.8636 9.42868 16.0003 9.42868ZM16.0003 11.143C15.3183 11.143 14.6642 11.4139 14.182 11.8961C13.6998 12.3784 13.4289 13.0324 13.4289 13.7144C13.4289 14.3964 13.6998 15.0504 14.182 15.5327C14.6642 16.0149 15.3183 16.2858 16.0003 16.2858C16.6823 16.2858 17.3363 16.0149 17.8186 15.5327C18.3008 15.0504 18.5717 14.3964 18.5717 13.7144C18.5717 13.0324 18.3008 12.3784 17.8186 11.8961C17.3363 11.4139 16.6823 11.143 16.0003 11.143Z" fill="#B28F58" stroke="#B28F58" stroke-width="1.2"/>
</svg>
