<svg width="32" height="32" viewBox="0 0 32 32" fill="none" xmlns="http://www.w3.org/2000/svg">
<path d="M21.5 4.6875C21.9476 4.6875 22.3768 4.86529 22.6932 5.18176C23.0097 5.49822 23.1875 5.92745 23.1875 6.375V26.625C23.1875 27.0726 23.0097 27.5018 22.6932 27.8182C22.3768 28.1347 21.9476 28.3125 21.5 28.3125H11.375C10.9274 28.3125 10.4982 28.1347 10.1818 27.8182C9.86529 27.5018 9.6875 27.0726 9.6875 26.625V6.375C9.6875 5.92745 9.86529 5.49822 10.1818 5.18176C10.4982 4.86529 10.9274 4.6875 11.375 4.6875H21.5ZM11.375 3C10.4799 3 9.62145 3.35558 8.98851 3.98851C8.35558 4.62145 8 5.47989 8 6.375V26.625C8 27.5201 8.35558 28.3785 8.98851 29.0115C9.62145 29.6444 10.4799 30 11.375 30H21.5C22.3951 30 23.2535 29.6444 23.8865 29.0115C24.5194 28.3785 24.875 27.5201 24.875 26.625V6.375C24.875 5.47989 24.5194 4.62145 23.8865 3.98851C23.2535 3.35558 22.3951 3 21.5 3H11.375Z" fill="#B28F58" stroke="#B28F58" stroke-width="0.2"/>
<path d="M16.4375 26.625C16.8851 26.625 17.3143 26.4472 17.6307 26.1307C17.9472 25.8143 18.125 25.3851 18.125 24.9375C18.125 24.4899 17.9472 24.0607 17.6307 23.7443C17.3143 23.4278 16.8851 23.25 16.4375 23.25C15.9899 23.25 15.5607 23.4278 15.2443 23.7443C14.9278 24.0607 14.75 24.4899 14.75 24.9375C14.75 25.3851 14.9278 25.8143 15.2443 26.1307C15.5607 26.4472 15.9899 26.625 16.4375 26.625Z" fill="#B28F58" stroke="#B28F58" stroke-width="0.2"/>
</svg>
