<svg width="22" height="22" viewBox="0 0 22 22" fill="none" xmlns="http://www.w3.org/2000/svg">
<path d="M21.6898 21.3677C21.6176 21.4991 21.5137 21.6082 21.3886 21.6841C21.2635 21.76 21.1215 21.7999 20.9771 21.7999L1.0227 21.7996C0.878207 21.7996 0.736261 21.7597 0.611144 21.6838C0.486027 21.6079 0.382152 21.4987 0.309969 21.3673C0.237786 21.2359 0.199841 21.0868 0.199951 20.9351C0.200062 20.7834 0.238223 20.6343 0.310597 20.503C1.84585 17.7268 4.30441 15.6446 7.2135 14.6567C5.81982 13.7859 4.7369 12.4589 4.13109 10.8794C3.52528 9.29985 3.43007 7.55518 3.8601 5.91333C4.29012 4.27149 5.22159 2.82327 6.51144 1.79111C7.80129 0.758958 9.37819 0.199951 10.9999 0.199951C12.6217 0.199951 14.1986 0.758958 15.4884 1.79111C16.7783 2.82327 17.7097 4.27149 18.1398 5.91333C18.5698 7.55518 18.4746 9.29985 17.8688 10.8794C17.263 12.4589 16.18 13.7859 14.7864 14.6567C17.6955 15.6446 20.1541 17.7269 21.6894 20.5033C21.7617 20.6346 21.7999 20.7836 21.7999 20.9353C21.8 21.0871 21.7621 21.2361 21.6899 21.3676L21.6898 21.3677Z" fill="#B28F58"/>
</svg>
