<svg width="24" height="24" viewBox="0 0 24 24" fill="none" xmlns="http://www.w3.org/2000/svg">
<path d="M6.9215 4C5.30312 4 4 5.30312 4 6.9215V17.0785C4 18.6969 5.30312 20 6.9215 20H12.4265V13.745H10.7725V11.493H12.4265V9.56901C12.4265 8.05741 13.4038 6.6695 15.655 6.6695C16.5665 6.6695 17.2405 6.75701 17.2405 6.75701L17.1875 8.86002C17.1875 8.86002 16.5001 8.85352 15.75 8.85352C14.9382 8.85352 14.808 9.22757 14.808 9.84853V11.493H17.252L17.1455 13.745H14.808V20H17.0785C18.6969 20 20 18.6969 20 17.0785V6.92152C20 5.30314 18.6969 4.00002 17.0785 4.00002H6.92149L6.9215 4Z" fill="#B28F58"/>
</svg>
