<svg width="24" height="24" viewBox="0 0 24 24" fill="none" xmlns="http://www.w3.org/2000/svg">
<path fill-rule="evenodd" clip-rule="evenodd" d="M8.70182 4.048C9.55491 4.00873 9.82691 4 12 4C14.1731 4 14.4451 4.00945 15.2975 4.048C16.1498 4.08655 16.7316 4.22255 17.2407 4.41964C17.7738 4.62109 18.2575 4.936 18.6575 5.34327C19.0647 5.74255 19.3789 6.22545 19.5796 6.75927C19.7775 7.26836 19.9127 7.85018 19.952 8.70109C19.9913 9.55564 20 9.82764 20 12C20 14.1731 19.9905 14.4451 19.952 15.2982C19.9135 16.1491 19.7775 16.7309 19.5796 17.24C19.3789 17.7739 19.0642 18.2576 18.6575 18.6575C18.2575 19.0647 17.7738 19.3789 17.2407 19.5796C16.7316 19.7775 16.1498 19.9127 15.2989 19.952C14.4451 19.9913 14.1731 20 12 20C9.82691 20 9.55491 19.9905 8.70182 19.952C7.85091 19.9135 7.26909 19.7775 6.76 19.5796C6.22612 19.3789 5.74241 19.0642 5.34255 18.6575C4.93555 18.2579 4.62059 17.7745 4.41964 17.2407C4.22255 16.7316 4.08727 16.1498 4.048 15.2989C4.00873 14.4444 4 14.1724 4 12C4 9.82691 4.00945 9.55491 4.048 8.70255C4.08655 7.85018 4.22255 7.26836 4.41964 6.75927C4.62089 6.22551 4.93609 5.74205 5.34327 5.34255C5.74257 4.93564 6.2258 4.62069 6.75927 4.41964C7.26836 4.22255 7.85018 4.08727 8.70109 4.048H8.70182ZM15.2327 5.488C14.3891 5.44945 14.136 5.44145 12 5.44145C9.864 5.44145 9.61091 5.44945 8.76727 5.488C7.98691 5.52364 7.56364 5.65382 7.28145 5.76364C6.90836 5.90909 6.64145 6.08145 6.36145 6.36145C6.09603 6.61967 5.89177 6.93402 5.76364 7.28145C5.65382 7.56364 5.52364 7.98691 5.488 8.76727C5.44945 9.61091 5.44145 9.864 5.44145 12C5.44145 14.136 5.44945 14.3891 5.488 15.2327C5.52364 16.0131 5.65382 16.4364 5.76364 16.7185C5.89164 17.0655 6.096 17.3804 6.36145 17.6385C6.61964 17.904 6.93455 18.1084 7.28145 18.2364C7.56364 18.3462 7.98691 18.4764 8.76727 18.512C9.61091 18.5505 9.86327 18.5585 12 18.5585C14.1367 18.5585 14.3891 18.5505 15.2327 18.512C16.0131 18.4764 16.4364 18.3462 16.7185 18.2364C17.0916 18.0909 17.3585 17.9185 17.6385 17.6385C17.904 17.3804 18.1084 17.0655 18.2364 16.7185C18.3462 16.4364 18.4764 16.0131 18.512 15.2327C18.5505 14.3891 18.5585 14.136 18.5585 12C18.5585 9.864 18.5505 9.61091 18.512 8.76727C18.4764 7.98691 18.3462 7.56364 18.2364 7.28145C18.0909 6.90836 17.9185 6.64145 17.6385 6.36145C17.3803 6.09605 17.066 5.89179 16.7185 5.76364C16.4364 5.65382 16.0131 5.52364 15.2327 5.488ZM10.9782 14.4662C11.5488 14.7037 12.1843 14.7358 12.7759 14.5569C13.3676 14.378 13.8788 13.9992 14.2223 13.4853C14.5657 12.9713 14.72 12.3541 14.6589 11.739C14.5978 11.1239 14.3251 10.5491 13.8873 10.1127C13.6082 9.8338 13.2707 9.62023 12.8992 9.48738C12.5276 9.35453 12.1312 9.30572 11.7385 9.34445C11.3459 9.38318 10.9667 9.50849 10.6282 9.71137C10.2898 9.91424 10.0005 10.1896 9.78131 10.5177C9.56208 10.8458 9.41832 11.2184 9.36038 11.6087C9.30243 11.999 9.33175 12.3973 9.44621 12.7749C9.56068 13.1525 9.75744 13.5001 10.0223 13.7925C10.2872 14.085 10.6137 14.315 10.9782 14.4662ZM9.09236 9.09236C9.4742 8.71053 9.92751 8.40764 10.4264 8.20099C10.9253 7.99434 11.46 7.88798 12 7.88798C12.54 7.88798 13.0747 7.99434 13.5736 8.20099C14.0725 8.40764 14.5258 8.71053 14.9076 9.09236C15.2895 9.4742 15.5924 9.92751 15.799 10.4264C16.0057 10.9253 16.112 11.46 16.112 12C16.112 12.54 16.0057 13.0747 15.799 13.5736C15.5924 14.0725 15.2895 14.5258 14.9076 14.9076C14.1365 15.6788 13.0906 16.112 12 16.112C10.9094 16.112 9.86352 15.6788 9.09236 14.9076C8.32121 14.1365 7.88798 13.0906 7.88798 12C7.88798 10.9094 8.32121 9.86352 9.09236 9.09236ZM17.024 8.50036C17.1186 8.41111 17.1944 8.30377 17.2468 8.18471C17.2992 8.06565 17.3271 7.93729 17.329 7.80722C17.3309 7.67716 17.3067 7.54803 17.2578 7.4275C17.2089 7.30696 17.1363 7.19746 17.0443 7.10548C16.9524 7.0135 16.8429 6.94091 16.7223 6.89201C16.6018 6.84311 16.4727 6.81889 16.3426 6.82079C16.2125 6.82268 16.0842 6.85066 15.9651 6.90305C15.8461 6.95545 15.7387 7.0312 15.6495 7.12582C15.4759 7.30984 15.3808 7.55427 15.3845 7.80722C15.3882 8.06017 15.4903 8.30173 15.6692 8.48061C15.8481 8.6595 16.0896 8.76162 16.3426 8.76531C16.5955 8.769 16.84 8.67396 17.024 8.50036Z" fill="#B28F58"/>
</svg>
