<svg width="24" height="24" viewBox="0 0 24 24" fill="none" xmlns="http://www.w3.org/2000/svg">
<path d="M12 4C15.8662 4 19 6.94801 19 10.5849C19 13.3674 16.9215 16.3999 12.8185 19.7146C12.5903 19.899 12.2994 20.0002 11.9987 20C11.6979 19.9998 11.4072 19.898 11.1794 19.7133L10.908 19.4917C6.98656 16.2635 5 13.3053 5 10.5849C5 6.94801 8.13385 4 12 4ZM12 5.01306C10.4291 5.01306 8.92254 5.60009 7.81175 6.64502C6.70096 7.68994 6.07692 9.10716 6.07692 10.5849C6.07692 12.9501 7.90626 15.6752 11.6152 18.7279L11.883 18.946C11.9155 18.9724 11.9571 18.9869 12 18.9869C12.0429 18.9869 12.0845 18.9724 12.117 18.946C16.0054 15.8042 17.9231 13.0061 17.9231 10.5849C17.9231 9.8532 17.7699 9.12866 17.4722 8.45265C17.1745 7.77665 16.7383 7.16241 16.1882 6.64502C15.6382 6.12762 14.9853 5.71721 14.2667 5.43719C13.548 5.15718 12.7778 5.01306 12 5.01306ZM12 8.05225C12.714 8.05225 13.3988 8.31908 13.9037 8.79405C14.4087 9.26901 14.6923 9.9132 14.6923 10.5849C14.6923 11.2566 14.4087 11.9008 13.9037 12.3758C13.3988 12.8507 12.714 13.1176 12 13.1176C11.286 13.1176 10.6012 12.8507 10.0963 12.3758C9.59135 11.9008 9.30769 11.2566 9.30769 10.5849C9.30769 9.9132 9.59135 9.26901 10.0963 8.79405C10.6012 8.31908 11.286 8.05225 12 8.05225ZM12 9.06531C11.5716 9.06531 11.1607 9.22541 10.8578 9.51039C10.5548 9.79537 10.3846 10.1819 10.3846 10.5849C10.3846 10.9879 10.5548 11.3744 10.8578 11.6594C11.1607 11.9444 11.5716 12.1045 12 12.1045C12.4284 12.1045 12.8393 11.9444 13.1422 11.6594C13.4452 11.3744 13.6154 10.9879 13.6154 10.5849C13.6154 10.1819 13.4452 9.79537 13.1422 9.51039C12.8393 9.22541 12.4284 9.06531 12 9.06531Z" fill="#B28F58" stroke="#B28F58" stroke-width="0.2"/>
</svg>
