<svg width="24" height="24" viewBox="0 0 24 24" fill="none" xmlns="http://www.w3.org/2000/svg">
<path d="M16.125 3.51562C16.4607 3.51562 16.7826 3.64897 17.0199 3.88632C17.2573 4.12367 17.3906 4.44559 17.3906 4.78125V19.9688C17.3906 20.3044 17.2573 20.6263 17.0199 20.8637C16.7826 21.101 16.4607 21.2344 16.125 21.2344H8.53125C8.19559 21.2344 7.87367 21.101 7.63632 20.8637C7.39897 20.6263 7.26562 20.3044 7.26562 19.9688V4.78125C7.26562 4.44559 7.39897 4.12367 7.63632 3.88632C7.87367 3.64897 8.19559 3.51562 8.53125 3.51562H16.125ZM8.53125 2.25C7.85992 2.25 7.21609 2.51668 6.74139 2.99139C6.26668 3.46609 6 4.10992 6 4.78125V19.9688C6 20.6401 6.26668 21.2839 6.74139 21.7586C7.21609 22.2333 7.85992 22.5 8.53125 22.5H16.125C16.7963 22.5 17.4402 22.2333 17.9149 21.7586C18.3896 21.2839 18.6562 20.6401 18.6562 19.9688V4.78125C18.6562 4.10992 18.3896 3.46609 17.9149 2.99139C17.4402 2.51668 16.7963 2.25 16.125 2.25H8.53125Z" fill="#B28F58" stroke="#B28F58" stroke-width="0.2"/>
<path d="M12.3281 19.9688C12.6638 19.9688 12.9857 19.8354 13.2231 19.5981C13.4604 19.3607 13.5938 19.0388 13.5938 18.7031C13.5938 18.3675 13.4604 18.0455 13.2231 17.8082C12.9857 17.5708 12.6638 17.4375 12.3281 17.4375C11.9925 17.4375 11.6705 17.5708 11.4332 17.8082C11.1958 18.0455 11.0625 18.3675 11.0625 18.7031C11.0625 19.0388 11.1958 19.3607 11.4332 19.5981C11.6705 19.8354 11.9925 19.9688 12.3281 19.9688Z" fill="#B28F58" stroke="#B28F58" stroke-width="0.2"/>
</svg>
