<svg width="24" height="24" viewBox="0 0 24 24" fill="none" xmlns="http://www.w3.org/2000/svg">
<path d="M13.8939 11.8939L13.7879 12L13.8939 12.1061L17.85 16.0621V21.85H6.15V16.0621L10.1061 12.1061L10.2121 12L10.1061 11.8939L6.15 7.93787V2.15H17.85V7.93787L13.8939 11.8939ZM16.15 16.5V16.4379L16.1061 16.3939L12.1061 12.3939L12 12.2879L11.8939 12.3939L7.89393 16.3939L7.85 16.4379V16.5V20V20.15H8H16H16.15V20V16.5ZM11.8939 11.6061L12 11.7121L12.1061 11.6061L16.1061 7.60607L16.15 7.56213V7.5V4V3.85H16H8H7.85V4V7.5V7.56213L7.89393 7.60607L11.8939 11.6061ZM10.15 6.15H13.85V6.68787L12 8.53787L10.15 6.68787V6.15Z" fill="#B28F58" stroke="#202020" stroke-width="0.3"/>
</svg>
