<svg width="8" height="8" viewBox="0 0 8 8" fill="none" xmlns="http://www.w3.org/2000/svg">
<path fill-rule="evenodd" clip-rule="evenodd" d="M0.287985 7.71279C0.358311 7.78312 0.453693 7.82262 0.553149 7.82262C0.652605 7.82262 0.747988 7.78312 0.818315 7.71279L7.0725 1.45861L7.07197 4.79597C7.07197 4.89556 7.11153 4.99106 7.18194 5.06147C7.25236 5.13189 7.34786 5.17145 7.44744 5.17145C7.54702 5.17145 7.64253 5.13189 7.71294 5.06147C7.78336 4.99106 7.82291 4.89556 7.82291 4.79597L7.82291 0.553333C7.82298 0.504008 7.81331 0.455154 7.79446 0.409572C7.77561 0.363989 7.74796 0.322572 7.71308 0.287694C7.6782 0.252816 7.63678 0.225161 7.5912 0.206314C7.54562 0.187467 7.49677 0.177797 7.44744 0.177859H3.2048C3.10522 0.177859 3.00972 0.217418 2.9393 0.287833C2.86889 0.358248 2.82933 0.453751 2.82933 0.553333C2.82933 0.652915 2.86889 0.748418 2.9393 0.818833C3.00972 0.889248 3.10522 0.928807 3.2048 0.928807L6.54217 0.928276L0.287985 7.18246C0.217658 7.25279 0.178149 7.34817 0.178149 7.44762C0.178149 7.54708 0.217658 7.64246 0.287985 7.71279Z" fill="#B28F58"/>
</svg>
