<svg width="64" height="64" viewBox="0 0 64 64" fill="none" xmlns="http://www.w3.org/2000/svg">
<rect width="64" height="64" rx="32" fill="#B28F58" fill-opacity="0.4"/>
<path d="M20.7541 17.9355C19.2119 17.9355 17.9453 19.2096 17.9453 20.7518V43.2499C17.9453 44.7921 19.2128 46.0605 20.7541 46.0605H34.1941C35.7372 46.0605 37.0028 44.7912 37.0028 43.2499V42.0209C42.0475 41.7443 46.0684 37.5574 46.0684 32.448C46.0684 27.3368 42.0475 23.1565 37.0028 22.8809V20.7518C37.0028 19.2096 35.7353 17.9355 34.1941 17.9355H20.7541ZM20.7541 19.8105H34.1941C34.7294 19.8105 35.1353 20.2165 35.1353 20.7518V22.9596C32.3256 23.3552 29.9022 24.9668 28.4209 27.2496H25.0666C24.5463 27.2477 24.1234 27.6696 24.1253 28.1909C24.1272 28.7084 24.5491 29.1265 25.0666 29.1246H27.4834C27.0981 30.1615 26.8778 31.279 26.8778 32.448C26.8778 37.2799 30.4806 41.2849 35.1372 41.9421V43.2499C35.1372 43.7852 34.7303 44.1855 34.1959 44.1855H20.7541C20.2187 44.1855 19.8203 43.7852 19.8203 43.2499V20.7518C19.8203 20.2165 20.2178 19.8105 20.7541 19.8105ZM38.5667 29.493L36.475 26.5577L37.1108 28.5087C37.6273 28.5125 37.4088 26.9824 37.4069 27.499L36.4731 30.683C37.4106 30.8105 37.8259 30.5862 38.2525 31.3952C38.4925 31.8537 39.6353 30.1859 39.1778 30.4268C38.7203 30.6668 38.1531 30.4905 37.9122 30.033C37.7434 29.7134 37.42 29.493 37.0187 29.493H36.1469C35.5703 29.493 35.1362 29.928 35.1362 30.5037C35.1362 31.0793 35.5703 31.5143 36.1469 31.5143H36.4731H36.5191H36.7994C38.3819 31.5143 39.6775 32.8184 39.6775 34.4009C39.6775 35.7743 38.7016 36.9321 37.4087 37.2171V37.4027C37.4069 37.9184 37.3141 37.623 36.7994 37.6249C36.2809 37.6286 35.5338 37.9221 35.5319 37.4027V37.2574C34.5963 37.1271 33.7919 36.5505 33.3662 35.7434C33.1244 35.2849 33.3016 34.7159 33.76 34.4759C34.2194 34.233 31.7642 33.8843 32.0042 34.3436C32.1729 34.6633 32.0717 36.2186 32.4729 36.2186L35.0284 38.5624C35.6041 38.5624 40.9104 37.2621 40.9104 36.6874C40.9104 36.1118 41.9548 33.8749 41.3792 33.8749L39.9729 31.9999L39.1778 31.0624C37.5953 31.0624 36.4731 32.0843 36.4731 30.5037C36.4731 29.134 36.3401 30.3199 37.6292 30.033C37.6273 29.5118 38.0473 29.4921 38.5667 29.493ZM23.2309 31.3952C22.7163 31.3971 22.2991 31.8143 22.2972 32.329C22.2953 32.8474 22.7134 33.2684 23.2309 33.2702H24.9062C25.4266 33.2721 25.8494 32.8502 25.8475 32.329C25.8456 31.8115 25.4237 31.3934 24.9062 31.3952H23.2309ZM27.4741 39.9115C26.6969 39.9115 26.0678 40.5415 26.0678 41.3177C26.0678 42.094 26.6969 42.724 27.4741 42.724C28.2512 42.724 28.8803 42.094 28.8803 41.3177C28.8803 40.5415 28.2503 39.9115 27.4741 39.9115Z" fill="black"/>
<path d="M36.765 27.4993C36.2378 27.4993 35.7157 27.6058 35.2285 27.8126C34.7414 28.0195 34.2988 28.3228 33.926 28.7051C33.5531 29.0874 33.2574 29.5412 33.0556 30.0407C32.8539 30.5402 32.75 31.0755 32.75 31.6161C32.75 32.1568 32.8539 32.6921 33.0556 33.1916C33.2574 33.6911 33.5531 34.1449 33.926 34.5272C34.2988 34.9095 34.7414 35.2127 35.2285 35.4196C35.7157 35.6265 36.2378 35.733 36.765 35.733C37.8295 35.732 38.85 35.2977 39.6023 34.5254L38.7678 33.6697C38.2368 34.2149 37.5164 34.5215 36.765 34.5222C36.0134 34.5222 35.2925 34.216 34.761 33.671C34.2295 33.126 33.9309 32.3869 33.9309 31.6161C33.9309 30.8454 34.2295 30.1062 34.761 29.5613C35.2925 29.0163 36.0134 28.7101 36.765 28.7101C37.5164 28.7108 38.2368 29.0174 38.7678 29.5625L39.6023 28.7069C38.85 27.9346 37.8295 27.5002 36.765 27.4993ZM32.75 36.3384V37.5493H39.6023V36.3384H32.75Z" fill="white"/>
</svg>
