<svg width="64" height="64" viewBox="0 0 64 64" fill="none" xmlns="http://www.w3.org/2000/svg">
<rect width="64" height="64" rx="32" fill="#B28F58" fill-opacity="0.4"/>
<path d="M18.875 39.0312C18.875 39.9015 19.2207 40.7361 19.8361 41.3514C20.4514 41.9668 21.286 42.3125 22.1562 42.3125H41.8438C42.714 42.3125 43.5486 41.9668 44.1639 41.3514C44.7793 40.7361 45.125 39.9015 45.125 39.0312V30.0078H18.875V39.0312ZM22.7422 34.5781C22.7422 34.1119 22.9274 33.6648 23.257 33.3352C23.5867 33.0055 24.0338 32.8203 24.5 32.8203H27.3125C27.7787 32.8203 28.2258 33.0055 28.5555 33.3352C28.8851 33.6648 29.0703 34.1119 29.0703 34.5781V35.75C29.0703 36.2162 28.8851 36.6633 28.5555 36.993C28.2258 37.3226 27.7787 37.5078 27.3125 37.5078H24.5C24.0338 37.5078 23.5867 37.3226 23.257 36.993C22.9274 36.6633 22.7422 36.2162 22.7422 35.75V34.5781Z" fill="black" fill-opacity="0.8"/>
<path d="M41.8438 21.6875H22.1562C21.286 21.6875 20.4514 22.0332 19.8361 22.6486C19.2207 23.2639 18.875 24.0985 18.875 24.9688V26.4922H45.125V24.9688C45.125 24.0985 44.7793 23.2639 44.1639 22.6486C43.5486 22.0332 42.714 21.6875 41.8438 21.6875Z" fill="black" fill-opacity="0.8"/>
</svg>
