<svg width="32" height="33" viewBox="0 0 32 33" fill="none" xmlns="http://www.w3.org/2000/svg">
<path d="M4 8.5H28V24.5H4V8.5ZM16 12.5C17.0609 12.5 18.0783 12.9214 18.8284 13.6716C19.5786 14.4217 20 15.4391 20 16.5C20 17.5609 19.5786 18.5783 18.8284 19.3284C18.0783 20.0786 17.0609 20.5 16 20.5C14.9391 20.5 13.9217 20.0786 13.1716 19.3284C12.4214 18.5783 12 17.5609 12 16.5C12 15.4391 12.4214 14.4217 13.1716 13.6716C13.9217 12.9214 14.9391 12.5 16 12.5ZM9.33333 11.1667C9.33333 11.8739 9.05238 12.5522 8.55229 13.0523C8.05219 13.5524 7.37391 13.8333 6.66667 13.8333V19.1667C7.37391 19.1667 8.05219 19.4476 8.55229 19.9477C9.05238 20.4478 9.33333 21.1261 9.33333 21.8333H22.6667C22.6667 21.1261 22.9476 20.4478 23.4477 19.9477C23.9478 19.4476 24.6261 19.1667 25.3333 19.1667V13.8333C24.6261 13.8333 23.9478 13.5524 23.4477 13.0523C22.9476 12.5522 22.6667 11.8739 22.6667 11.1667H9.33333Z" fill="#B28F58"/>
</svg>
