<svg width="64" height="64" viewBox="0 0 64 64" fill="none" xmlns="http://www.w3.org/2000/svg">
<rect width="64" height="64" rx="32" fill="#B28F58" fill-opacity="0.4"/>
<path d="M28 23.5H27V24.5C27 24.8978 26.842 25.2794 26.5607 25.5607C26.2794 25.842 25.8978 26 25.5 26H24.5V27V32V33H25.5C25.8978 33 26.2794 33.158 26.5607 33.4393C26.842 33.7206 27 34.1022 27 34.5V35.5H28H40.5H41.5V34.5C41.5 34.1022 41.658 33.7206 41.9393 33.4393C42.2206 33.158 42.6022 33 43 33H44V32V27V26H43C42.6022 26 42.2206 25.842 41.9393 25.5607C41.658 25.2794 41.5 24.8978 41.5 24.5V23.5H40.5H28ZM20.5 40.5H39.5V41H19V28H19.5V39.5V40.5H20.5ZM24 23H44.5V36H24V23ZM34.25 26.75C34.9793 26.75 35.6788 27.0397 36.1945 27.5555C36.7103 28.0712 37 28.7707 37 29.5C37 30.2293 36.7103 30.9288 36.1945 31.4445C35.6788 31.9603 34.9793 32.25 34.25 32.25C33.5207 32.25 32.8212 31.9603 32.3055 31.4445C31.7897 30.9288 31.5 30.2293 31.5 29.5C31.5 28.7707 31.7897 28.0712 32.3055 27.5555C32.8212 27.0397 33.5207 26.75 34.25 26.75Z" stroke="black" stroke-opacity="0.8" stroke-width="2"/>
</svg>
