<svg width="64" height="64" viewBox="0 0 64 64" fill="none" xmlns="http://www.w3.org/2000/svg">
<rect width="64" height="64" rx="32" fill="#B28F58" fill-opacity="0.4"/>
<path d="M22.5959 23.0937H41.3459C41.5649 23.0936 41.7837 23.1074 42.001 23.1353C41.9273 22.6183 41.7498 22.1217 41.479 21.6752C41.2082 21.2288 40.8498 20.8418 40.4255 20.5376C40.0011 20.2334 39.5195 20.0183 39.0097 19.9052C38.5 19.7922 37.9726 19.7835 37.4594 19.8798L22.0393 22.5124H22.0217C21.0538 22.6975 20.193 23.2451 19.6152 24.0435C20.4857 23.4243 21.5277 23.0923 22.5959 23.0937Z" fill="black" fill-opacity="0.8"/>
<path d="M41.3457 24.5H22.5957C21.6015 24.5011 20.6483 24.8965 19.9453 25.5995C19.2422 26.3026 18.8468 27.2558 18.8457 28.25V39.5C18.8468 40.4942 19.2422 41.4474 19.9453 42.1505C20.6483 42.8535 21.6015 43.2489 22.5957 43.25H41.3457C42.3399 43.2489 43.2931 42.8535 43.9962 42.1505C44.6992 41.4474 45.0946 40.4942 45.0957 39.5V28.25C45.0946 27.2558 44.6992 26.3026 43.9962 25.5995C43.2931 24.8965 42.3399 24.5011 41.3457 24.5ZM38.5625 35.75C38.1917 35.75 37.8291 35.64 37.5208 35.434C37.2125 35.228 36.9721 34.9351 36.8302 34.5925C36.6883 34.2499 36.6512 33.8729 36.7235 33.5092C36.7959 33.1455 36.9745 32.8114 37.2367 32.5492C37.4989 32.287 37.833 32.1084 38.1967 32.036C38.5604 31.9637 38.9374 32.0008 39.28 32.1427C39.6226 32.2846 39.9155 32.525 40.1215 32.8333C40.3275 33.1416 40.4375 33.5042 40.4375 33.875C40.4375 34.3723 40.24 34.8492 39.8883 35.2008C39.5367 35.5525 39.0598 35.75 38.5625 35.75Z" fill="black" fill-opacity="0.8"/>
<path d="M18.875 32.2051V26.375C18.875 25.1053 19.5781 22.9766 22.0186 22.5154C24.0898 22.127 26.1406 22.127 26.1406 22.127C26.1406 22.127 27.4883 23.0645 26.375 23.0645C25.2617 23.0645 25.291 24.5 26.375 24.5C27.459 24.5 26.375 25.877 26.375 25.877L22.0098 30.8281L18.875 32.2051Z" fill="black" fill-opacity="0.8"/>
</svg>
