<svg width="680" height="381" viewBox="0 0 680 381" fill="none" xmlns="http://www.w3.org/2000/svg">
<g clip-path="url(#clip0_246_4434)">
<path d="M628.885 288.946H569.027C573.399 271.099 575.718 252.447 575.718 233.253C575.718 195.102 566.557 159.092 550.316 127.298H592.767C595.209 127.298 597.187 125.32 597.187 122.878C597.187 120.438 595.209 118.458 592.767 118.458H545.555C505.492 47.7317 429.552 0 342.464 0C284.539 0 231.548 21.1178 190.763 56.0718H118.935C116.495 56.0718 114.515 58.0519 114.515 60.4918C114.515 62.9317 116.495 64.9119 118.935 64.9119H181.013C176.055 69.6679 171.309 74.6411 166.786 79.8139H68.4201C65.9802 79.8139 64 81.7915 64 84.2339C64 86.6763 65.9802 88.654 68.4201 88.654H159.433C127.987 128.404 109.211 178.634 109.211 233.253C109.211 263.818 115.093 293.01 125.782 319.761H114.136C111.696 319.761 109.716 321.738 109.716 324.181C109.716 326.623 111.696 328.601 114.136 328.601H129.528C131.137 332.185 132.832 335.723 134.613 339.209H82.3117C79.8693 339.209 77.8917 341.187 77.8917 343.629C77.8917 346.071 79.8693 348.049 82.3117 348.049H139.371C144.822 357.672 150.936 366.871 157.655 375.58H527.274C539.829 359.301 550.281 341.315 558.225 322.034H601.607C604.049 322.034 606.027 320.056 606.027 317.614C606.027 315.171 604.049 313.194 601.607 313.194H561.655C563.498 308.137 565.175 303 566.673 297.786H628.885C631.327 297.786 633.305 295.809 633.305 293.366C633.305 290.924 631.327 288.946 628.885 288.946Z" fill="#FAFAFA"/>
<path d="M440.498 375.565H412.24C412.24 373.524 413.895 371.87 415.935 371.87H436.806C438.844 371.87 440.498 373.524 440.498 375.565Z" fill="#F2F2F2"/>
<path d="M433.802 371.87H418.933L423.767 234.131L427.013 236.288L433.802 371.87Z" fill="#F2F2F2"/>
<path d="M438.394 375.565H410.136C410.136 373.524 411.79 371.87 413.831 371.87H434.701C436.739 371.87 438.394 373.524 438.394 375.565Z" fill="#F2F2F2"/>
<path d="M424.264 235.349L495.367 276.4L494.589 272.358C494.435 271.56 493.998 270.848 493.356 270.35L446.905 234.394C446.054 233.735 444.94 233.527 443.909 233.836L434.589 236.619C433.71 236.882 432.761 236.771 431.968 236.311L425.775 232.734L424.264 235.349Z" fill="#F2F2F2"/>
<path d="M422.757 232.737L351.655 273.788L355.537 275.134C356.307 275.402 357.151 275.379 357.906 275.068L412.258 252.824C413.258 252.415 414.001 251.549 414.251 250.495L416.496 241.049C416.708 240.152 417.284 239.382 418.082 238.92L424.268 235.348L422.757 232.737Z" fill="#F2F2F2"/>
<path d="M425.773 232.737V150.635L422.664 153.325C422.048 153.858 421.648 154.595 421.54 155.403L413.627 213.602C413.48 214.67 413.859 215.744 414.645 216.484L421.709 223.157C422.378 223.788 422.757 224.667 422.757 225.589V232.737H425.773Z" fill="#F2F2F2"/>
<path d="M431.089 371.87H417.442L422.274 234.131H426.257L431.089 371.87Z" fill="#F2F2F2"/>
<path d="M427.674 234.964C428.117 233.085 426.954 231.202 425.075 230.759C423.196 230.315 421.313 231.478 420.87 233.357C420.426 235.236 421.59 237.119 423.468 237.563C425.347 238.006 427.23 236.843 427.674 234.964Z" fill="#F2F2F2"/>
<path d="M424.027 237.112C425.788 237.112 427.215 235.685 427.215 233.924C427.215 232.164 425.788 230.737 424.027 230.737C422.267 230.737 420.84 232.164 420.84 233.924C420.84 235.685 422.267 237.112 424.027 237.112Z" fill="#F2F2F2"/>
<path d="M352.915 274.225L420.84 233.924L420.78 233.878L351.655 273.788L352.915 274.225Z" fill="#F2F2F2"/>
<path d="M431.089 370.977H417.473V371.871H431.089V370.977Z" fill="#F2F2F2"/>
<path d="M424.766 151.509L425.7 231.042L425.773 231.012V150.635L424.766 151.509Z" fill="#F2F2F2"/>
<path d="M495.117 275.088L426.252 236.414L426.242 236.49L495.367 276.399L495.117 275.088Z" fill="#F2F2F2"/>
<path d="M533.332 375.569H488.093C488.093 372.303 490.74 369.653 494.008 369.653H527.419C530.685 369.653 533.332 372.3 533.332 375.569Z" fill="#E0E0E0"/>
<path d="M522.619 369.652H498.811L506.547 149.134L511.748 152.592L522.619 369.652Z" fill="#E0E0E0"/>
<path d="M529.968 375.569H484.729C484.729 372.303 487.376 369.653 490.644 369.653H524.055C527.318 369.653 529.968 372.3 529.968 375.569Z" fill="#F2F2F2"/>
<path d="M507.347 151.084L621.18 216.807L619.794 209.596C619.64 208.798 619.2 208.083 618.559 207.585L542.781 148.924C541.93 148.265 540.813 148.058 539.783 148.366L523.052 153.365C522.173 153.627 521.224 153.516 520.428 153.057L509.767 146.901L507.347 151.084Z" fill="#F2F2F2"/>
<path d="M504.933 146.901L391.1 212.622L398.038 215.026C398.806 215.291 399.647 215.269 400.399 214.96L490.675 178.014L495.441 157.957L507.35 151.081L504.933 146.901Z" fill="#F2F2F2"/>
<path d="M509.759 146.901V15.4585L504.208 20.2625C503.591 20.7954 503.192 21.5355 503.081 22.3412L490.172 117.292C490.025 118.36 490.407 119.434 491.19 120.176L503.879 132.161C504.549 132.792 504.927 133.674 504.927 134.593V146.901H509.759Z" fill="#F2F2F2"/>
<path d="M518.271 369.652H496.423L504.16 149.134H510.535L518.271 369.652Z" fill="#F2F2F2"/>
<path d="M512.527 151.269C513.709 148.414 512.354 145.142 509.499 143.959C506.645 142.777 503.372 144.132 502.189 146.987C501.007 149.842 502.362 153.114 505.217 154.297C508.072 155.479 511.345 154.124 512.527 151.269Z" fill="#E0E0E0"/>
<path d="M511.691 150.753C512.769 148.149 511.533 145.165 508.93 144.087C506.327 143.008 503.342 144.244 502.264 146.848C501.185 149.451 502.421 152.436 505.025 153.514C507.628 154.592 510.613 153.356 511.691 150.753Z" fill="#F2F2F2"/>
<path d="M393.118 213.324L501.864 148.806L501.768 148.73L391.1 212.624L393.118 213.324Z" fill="#E0E0E0"/>
<path d="M518.274 368.22H496.474V369.652H518.274V368.22Z" fill="#E0E0E0"/>
<path d="M508.148 16.8603L509.646 144.189L509.76 144.143V15.4585L508.148 16.8603Z" fill="#E0E0E0"/>
<path d="M620.776 214.707L510.53 152.791L510.515 152.912L621.181 216.806L620.776 214.707Z" fill="#E0E0E0"/>
<path d="M171 268.799C156.434 268.799 144.515 256.88 144.515 242.313V181.349C144.515 166.783 156.434 154.864 171 154.864C185.566 154.864 197.485 166.783 197.485 181.349V242.313C197.483 256.88 185.566 268.799 171 268.799Z" fill="#F2F2F2"/>
<path d="M172.445 375.698H169.555V197.226C169.555 196.428 170.202 195.781 171 195.781C171.798 195.781 172.445 196.428 172.445 197.226V375.698Z" fill="#E0E0E0"/>
<path d="M172.445 221.415L164.41 207.499C164.011 206.807 163.127 206.572 162.438 206.971C161.745 207.37 161.511 208.254 161.91 208.943L169.944 222.86L172.445 221.415Z" fill="#E0E0E0"/>
<path d="M172.056 238.061L180.09 224.144C180.489 223.452 180.252 222.57 179.562 222.171C178.87 221.772 177.989 222.01 177.59 222.699L169.555 236.616L172.056 238.061Z" fill="#E0E0E0"/>
<path d="M238.63 239.79C220.134 239.79 205 224.655 205 206.159V128.745C205 110.249 220.134 95.1143 238.63 95.1143C257.126 95.1143 272.26 110.249 272.26 128.745V206.159C272.26 224.655 257.126 239.79 238.63 239.79Z" fill="#F2F2F2"/>
<path d="M240.463 375.536H236.793V148.903C236.793 147.89 237.614 147.069 238.627 147.069C239.64 147.069 240.461 147.89 240.461 148.903V375.536H240.463Z" fill="#E0E0E0"/>
<path d="M240.463 179.617L230.262 161.947C229.754 161.071 228.633 160.77 227.756 161.275C226.88 161.783 226.579 162.905 227.084 163.781L237.286 181.451L240.463 179.617Z" fill="#E0E0E0"/>
<path d="M239.973 200.757L250.175 183.087C250.682 182.21 250.382 181.086 249.503 180.581C248.627 180.074 247.503 180.374 246.997 181.253L236.796 198.923L239.973 200.757Z" fill="#E0E0E0"/>
<path d="M187.337 365.683C188.88 364.233 189.585 362.576 188.976 361.412C188.224 359.97 185.703 359.747 183.013 360.763C183.149 360.412 183.278 360.051 183.394 359.679C184.829 355.1 184.008 350.768 181.566 350.003C179.184 349.258 176.135 352.175 174.655 356.565C173.43 351.536 170.281 347.99 167.581 348.627C165.04 349.225 163.795 353.317 164.61 358.007C160.887 356.363 157.293 356.494 156.149 358.477C154.965 360.53 156.811 363.862 160.327 366.289C158.66 366.847 157.513 367.87 157.356 369.151C157.164 370.724 158.513 372.278 160.655 373.238C160.536 373.543 160.504 373.851 160.574 374.147C160.797 375.097 162.001 375.682 163.572 375.743V375.748H163.807C163.812 375.748 163.82 375.748 163.825 375.748H183.69V375.73C184.076 375.68 184.367 375.516 184.465 375.253C184.531 375.079 184.503 374.879 184.4 374.682C185.445 374.581 186.233 374.167 186.491 373.478C186.693 372.94 186.542 372.318 186.122 371.709C188.837 371.528 190.926 370.338 190.992 368.805C191.055 367.461 189.535 366.241 187.337 365.683Z" fill="#E0E0E0"/>
<path d="M229.156 357.239C231.995 354.571 233.291 351.525 232.172 349.381C230.788 346.726 226.15 346.32 221.202 348.189C221.455 347.545 221.69 346.88 221.905 346.196C224.541 337.775 223.036 329.809 218.54 328.399C214.158 327.028 208.556 332.395 205.833 340.465C203.578 331.216 197.789 324.697 192.826 325.864C188.153 326.962 185.862 334.489 187.365 343.115C180.518 340.091 173.91 340.331 171.806 343.978C169.627 347.754 173.021 353.882 179.49 358.347C176.423 359.375 174.314 361.255 174.026 363.611C173.673 366.506 176.156 369.362 180.093 371.125C179.876 371.688 179.818 372.254 179.944 372.8C180.356 374.545 182.566 375.624 185.46 375.737V375.747H185.892C185.903 375.747 185.915 375.747 185.925 375.747H222.46V375.714C223.173 375.621 223.705 375.32 223.885 374.838C224.006 374.515 223.953 374.151 223.766 373.785C225.688 373.598 227.135 372.838 227.61 371.57C227.982 370.582 227.704 369.438 226.933 368.317C231.929 367.983 235.766 365.793 235.89 362.977C235.996 360.504 233.197 358.261 229.156 357.239Z" fill="#F2F2F2"/>
<path d="M477.887 359.144C475.359 356.767 474.205 354.057 475.2 352.147C476.433 349.783 480.562 349.422 484.967 351.087C484.742 350.513 484.533 349.92 484.343 349.314C481.994 341.815 483.335 334.72 487.339 333.467C491.241 332.244 496.229 337.026 498.654 344.212C500.662 335.978 505.817 330.171 510.237 331.211C514.4 332.191 516.438 338.892 515.099 346.571C521.197 343.878 527.079 344.093 528.956 347.338C530.895 350.7 527.875 356.156 522.113 360.134C524.844 361.048 526.72 362.723 526.978 364.822C527.294 367.4 525.084 369.941 521.578 371.512C521.772 372.013 521.823 372.518 521.709 373.003C521.343 374.558 519.373 375.518 516.799 375.619V375.629H516.415C516.405 375.629 516.395 375.629 516.385 375.629H483.853V375.602C483.219 375.518 482.744 375.251 482.585 374.821C482.477 374.533 482.525 374.21 482.691 373.884C480.979 373.717 479.691 373.04 479.266 371.911C478.938 371.03 479.183 370.012 479.868 369.017C475.42 368.719 472.002 366.772 471.894 364.263C471.798 362.053 474.291 360.058 477.887 359.144Z" fill="#FAFCFA"/>
<path d="M515.486 368.991C514.465 368.031 513.998 366.935 514.4 366.165C514.897 365.21 516.567 365.063 518.345 365.735C518.254 365.503 518.168 365.263 518.092 365.018C517.143 361.987 517.686 359.123 519.302 358.615C520.878 358.123 522.894 360.052 523.874 362.957C524.684 359.63 526.768 357.284 528.554 357.703C530.236 358.1 531.059 360.807 530.519 363.909C532.982 362.82 535.361 362.909 536.116 364.22C536.899 365.579 535.679 367.784 533.353 369.39C534.457 369.759 535.214 370.436 535.318 371.284C535.444 372.325 534.553 373.353 533.136 373.987C533.214 374.189 533.234 374.393 533.189 374.588C533.042 375.217 532.244 375.603 531.203 375.644V375.646H531.049C531.044 375.646 531.042 375.646 531.037 375.646H517.893V375.634C517.638 375.601 517.446 375.492 517.38 375.318C517.337 375.202 517.355 375.07 517.423 374.939C516.731 374.871 516.211 374.598 516.039 374.141C515.905 373.785 516.006 373.373 516.281 372.971C514.483 372.85 513.104 372.065 513.058 371.049C513.026 370.165 514.033 369.36 515.486 368.991Z" fill="#E0E0E0"/>
<path d="M355.297 360.098C352.915 357.858 351.826 355.304 352.766 353.504C353.928 351.276 357.82 350.935 361.972 352.503C361.76 351.963 361.563 351.405 361.384 350.831C359.171 343.764 360.434 337.076 364.208 335.894C367.885 334.742 372.588 339.248 374.874 346.022C376.766 338.261 381.625 332.787 385.793 333.767C389.715 334.689 391.637 341.006 390.377 348.245C396.126 345.707 401.67 345.909 403.438 348.97C405.266 352.137 402.417 357.282 396.989 361.03C399.563 361.894 401.334 363.47 401.574 365.45C401.872 367.88 399.788 370.277 396.482 371.757C396.666 372.23 396.714 372.704 396.606 373.162C396.262 374.626 394.406 375.531 391.976 375.627V375.634H391.615C391.605 375.634 391.597 375.634 391.587 375.634H360.922V375.606C360.323 375.528 359.879 375.276 359.727 374.871C359.626 374.601 359.669 374.296 359.828 373.987C358.214 373.831 356.999 373.192 356.6 372.128C356.289 371.298 356.522 370.34 357.168 369.398C352.976 369.118 349.753 367.282 349.652 364.917C349.556 362.839 351.905 360.957 355.297 360.098Z" fill="#F2F2F2"/>
<path d="M389.774 366.834C388.425 365.566 387.809 364.118 388.339 363.098C388.999 361.835 391.201 361.643 393.555 362.532C393.434 362.227 393.323 361.911 393.222 361.585C391.969 357.582 392.684 353.793 394.82 353.124C396.904 352.472 399.566 355.023 400.862 358.86C401.933 354.462 404.686 351.363 407.048 351.919C409.27 352.442 410.359 356.018 409.644 360.12C412.9 358.683 416.042 358.797 417.042 360.529C418.078 362.325 416.464 365.237 413.39 367.361C414.847 367.849 415.85 368.743 415.986 369.864C416.155 371.241 414.973 372.597 413.102 373.436C413.205 373.704 413.233 373.971 413.173 374.231C412.978 375.062 411.925 375.575 410.551 375.628V375.633H410.346C410.341 375.633 410.336 375.633 410.331 375.633H392.961V375.618C392.623 375.573 392.37 375.431 392.285 375.201C392.226 375.047 392.252 374.876 392.34 374.701C391.426 374.613 390.739 374.252 390.511 373.648C390.335 373.178 390.469 372.635 390.832 372.102C388.458 371.943 386.632 370.903 386.574 369.564C386.521 368.387 387.852 367.321 389.774 366.834Z" fill="#E0E0E0"/>
<path d="M407.238 157.485C407.021 157.485 406.811 157.518 406.616 157.578C406.624 157.475 406.627 157.371 406.627 157.265C406.627 154.845 404.664 152.883 402.244 152.883C400.236 152.883 398.544 154.234 398.026 156.075C397.781 156.007 397.521 155.969 397.253 155.969C395.685 155.969 394.415 157.24 394.415 158.808C394.415 160.377 395.685 161.647 397.253 161.647C397.304 161.647 397.352 161.645 397.403 161.642V161.65H407.24C408.39 161.65 409.322 160.718 409.322 159.568C409.319 158.417 408.387 157.485 407.238 157.485Z" fill="#F2F2F2"/>
<path d="M330.723 109.624C329.538 109.624 328.429 109.952 327.482 110.518C326.502 106.277 322.703 103.115 318.165 103.115C317.766 103.115 317.371 103.143 316.985 103.191C314.871 98.4777 310.138 95.1968 304.639 95.1968C297.168 95.1968 291.114 101.254 291.114 108.722C291.114 108.803 291.116 108.881 291.116 108.962C290.212 108.535 289.202 108.293 288.136 108.293C284.282 108.293 281.157 111.417 281.157 115.271C281.157 119.126 284.282 122.248 288.136 122.248H330.723C334.208 122.248 337.035 119.421 337.035 115.936C337.035 112.45 334.208 109.624 330.723 109.624Z" fill="#F2F2F2"/>
<path d="M265.815 259.932C266.596 259.932 267.323 260.146 267.947 260.52C268.591 257.732 271.089 255.65 274.077 255.65C274.34 255.65 274.597 255.668 274.853 255.701C276.244 252.602 279.356 250.442 282.975 250.442C287.891 250.442 291.874 254.426 291.874 259.341C291.874 259.394 291.874 259.444 291.871 259.497C292.465 259.217 293.131 259.058 293.831 259.058C296.367 259.058 298.42 261.114 298.42 263.647C298.42 266.183 296.364 268.236 293.831 268.236H265.815C263.522 268.236 261.663 266.377 261.663 264.084C261.663 261.791 263.522 259.932 265.815 259.932Z" fill="#F2F2F2"/>
<path d="M544.456 350.775L544.391 351.027C544.383 351.055 544.211 351.704 543.785 352.51C543.388 353.258 542.691 354.28 541.61 354.919C540.529 355.558 539.294 355.675 538.448 355.66C537.538 355.644 536.887 355.48 536.859 355.473L536.606 355.409L536.672 355.157C536.68 355.129 536.851 354.48 537.278 353.674C537.675 352.927 538.372 351.904 539.453 351.265C540.534 350.626 541.769 350.51 542.615 350.525C543.524 350.54 544.176 350.704 544.204 350.712L544.456 350.775ZM537.256 355.023C537.945 355.144 539.837 355.364 541.35 354.472C542.863 353.578 543.585 351.82 543.812 351.156C543.123 351.035 541.231 350.815 539.718 351.707C538.203 352.601 537.48 354.361 537.256 355.023Z" fill="#E0E0E0"/>
<path d="M540.85 356.816C538.446 357.723 535.769 356.523 535.769 356.523C535.769 356.523 536.989 353.854 539.391 352.947C541.795 352.04 544.472 353.24 544.472 353.24C544.472 353.24 543.255 355.912 540.85 356.816Z" fill="#F2F2F2"/>
<path d="M535.708 321.897L535.705 322.22C535.705 322.256 535.693 323.092 535.423 324.19C535.172 325.211 534.64 326.658 533.528 327.757C532.417 328.855 530.962 329.368 529.937 329.606C528.835 329.861 527.997 329.863 527.961 329.863H527.638L527.641 329.54C527.641 329.505 527.653 328.669 527.924 327.57C528.174 326.549 528.707 325.102 529.818 324.003C530.929 322.905 532.384 322.392 533.41 322.155C534.511 321.9 535.349 321.897 535.385 321.897H535.708ZM528.305 329.204C529.176 329.141 531.523 328.833 533.076 327.3C534.632 325.764 534.97 323.423 535.044 322.554C534.172 322.617 531.826 322.925 530.273 324.458C528.717 325.996 528.378 328.335 528.305 329.204Z" fill="#E0E0E0"/>
<path d="M533.187 330.281C530.562 332.102 526.966 331.465 526.966 331.465C526.966 331.465 527.628 327.876 530.254 326.055C532.879 324.234 536.475 324.87 536.475 324.87C536.475 324.87 535.811 328.46 533.187 330.281Z" fill="#F2F2F2"/>
<path d="M202.349 313.421L202.553 313.596C202.576 313.616 203.104 314.07 203.662 314.831C204.18 315.538 204.819 316.652 204.925 317.95C205.031 319.248 204.581 320.451 204.185 321.234C203.758 322.075 203.311 322.61 203.291 322.633L203.116 322.84L202.912 322.666C202.889 322.645 202.361 322.191 201.803 321.431C201.285 320.723 200.646 319.609 200.54 318.311C200.434 317.013 200.884 315.811 201.28 315.028C201.707 314.187 202.154 313.651 202.174 313.628L202.349 313.421ZM203.053 322.059C203.48 321.471 204.538 319.804 204.389 317.993C204.24 316.177 202.927 314.71 202.412 314.197C201.985 314.785 200.927 316.452 201.076 318.263C201.225 320.082 202.538 321.549 203.053 322.059Z" fill="#E0E0E0"/>
<path d="M206.354 319.517C206.112 322.169 203.783 324.124 203.783 324.124C203.783 324.124 201.846 321.78 202.088 319.128C202.331 316.476 204.66 314.521 204.66 314.521C204.66 314.521 206.594 316.865 206.354 319.517Z" fill="#F2F2F2"/>
<path d="M151.243 344.051L151.47 344.036C151.495 344.033 152.079 343.998 152.862 344.129C153.589 344.251 154.627 344.546 155.453 345.263C156.279 345.981 156.713 346.971 156.936 347.673C157.173 348.428 157.219 349.014 157.219 349.04L157.236 349.264L157.009 349.279C156.984 349.282 156.4 349.317 155.617 349.186C154.89 349.065 153.852 348.769 153.026 348.052C152.2 347.335 151.766 346.345 151.543 345.642C151.306 344.887 151.26 344.301 151.26 344.276L151.243 344.051ZM156.739 348.835C156.65 348.231 156.309 346.607 155.155 345.602C153.998 344.597 152.346 344.486 151.735 344.481C151.824 345.084 152.165 346.708 153.319 347.713C154.476 348.719 156.127 348.83 156.739 348.835Z" fill="#E0E0E0"/>
<path d="M157.231 345.369C158.643 347.107 158.388 349.651 158.388 349.651C158.388 349.651 155.844 349.378 154.435 347.64C153.026 345.902 153.278 343.359 153.278 343.359C153.278 343.359 155.819 343.632 157.231 345.369Z" fill="#F2F2F2"/>
<path d="M467.936 337.155L468.191 337.147C468.219 337.147 468.876 337.132 469.747 337.314C470.555 337.483 471.707 337.862 472.601 338.706C473.493 339.549 473.937 340.678 474.152 341.476C474.384 342.335 474.407 342.992 474.407 343.02L474.415 343.275L474.159 343.282C474.132 343.282 473.475 343.297 472.604 343.116C471.795 342.946 470.644 342.568 469.75 341.724C468.858 340.88 468.413 339.751 468.199 338.953C467.966 338.094 467.944 337.438 467.944 337.41L467.936 337.155ZM473.882 342.77C473.808 342.088 473.5 340.251 472.255 339.074C471.005 337.895 469.156 337.693 468.471 337.66C468.545 338.342 468.853 340.178 470.098 341.355C471.348 342.535 473.197 342.737 473.882 342.77Z" fill="#E0E0E0"/>
<path d="M474.592 338.907C476.095 340.92 475.693 343.761 475.693 343.761C475.693 343.761 472.854 343.339 471.352 341.326C469.849 339.313 470.25 336.472 470.25 336.472C470.25 336.472 473.089 336.893 474.592 338.907Z" fill="#F2F2F2"/>
<path d="M397.515 360.077H280.087L282.224 352.341L286.397 337.237L288.923 328.091L292.648 314.608L299.829 288.616L303.554 275.131L329.744 180.339H347.858L357.456 215.079L374.048 275.131L377.774 288.616L384.954 314.608L388.68 328.091L395.378 352.341L397.515 360.077Z" fill="#27AE60"/>
<path d="M397.515 360.078H280.087L282.224 352.341L286.397 337.237C368.226 332.403 357.459 215.082 357.459 215.082L395.378 352.341L397.515 360.078Z" fill="#219653"/>
<path d="M421.54 360.078H256.06V375.811H421.54V360.078Z" fill="#219653"/>
<path d="M397.515 360.078H280.087L282.224 352.341H395.378L397.515 360.078Z" fill="#092F33"/>
<path d="M377.774 288.616C377.774 288.616 375.313 340.513 315.688 352.384L395.381 352.341L377.774 288.616Z" fill="#092F33"/>
<path d="M377.773 288.615H299.828L303.554 275.13H374.047L377.773 288.615Z" fill="white"/>
<path d="M388.68 328.09H288.922L292.648 314.608H384.954L388.68 328.09Z" fill="white"/>
<path d="M383.265 360.078C383.265 360.078 361.331 376.636 280.087 375.811H421.542V360.078H383.265Z" fill="#092F33"/>
<path d="M445.856 381H229.441C227.971 381 226.782 379.811 226.782 378.341V378.265C226.782 376.795 227.971 375.605 229.441 375.605H445.856C447.326 375.605 448.515 376.795 448.515 378.265V378.341C448.515 379.811 447.323 381 445.856 381Z" fill="#092F33"/>
<path d="M233.543 381H198.498C197.029 381 195.839 379.811 195.839 378.341V378.265C195.839 376.795 197.029 375.605 198.498 375.605H233.543C235.013 375.605 236.203 376.795 236.203 378.265V378.341C236.203 379.811 235.013 381 233.543 381Z" fill="#092F33"/>
<path d="M182.43 381H145.612C144.142 381 142.952 379.81 142.952 378.34V378.265C142.952 376.795 144.142 375.605 145.612 375.605H182.432C183.902 375.605 185.092 376.795 185.092 378.265V378.34C185.089 379.81 183.9 381 182.43 381Z" fill="#092F33"/>
<path d="M492.577 381H462.354C460.884 381 459.694 379.811 459.694 378.341V378.265C459.694 376.795 460.884 375.605 462.354 375.605H492.577C494.047 375.605 495.237 376.795 495.237 378.265V378.341C495.237 379.811 494.045 381 492.577 381Z" fill="#092F33"/>
<path d="M532.085 381H509.096C507.626 381 506.436 379.811 506.436 378.341V378.265C506.436 376.795 507.626 375.605 509.096 375.605H532.085C533.555 375.605 534.745 376.795 534.745 378.265V378.341C534.745 379.811 533.555 381 532.085 381Z" fill="#092F33"/>
</g>
<defs>
<clipPath id="clip0_246_4434">
<rect width="680" height="381" fill="white"/>
</clipPath>
</defs>
</svg>
