<svg width="580" height="219" viewBox="0 0 580 219" fill="none" xmlns="http://www.w3.org/2000/svg">
<path d="M111.446 215.958C109.411 215.958 107.681 215.249 106.256 213.829C104.831 212.41 104.118 210.686 104.118 208.658V169.725H7.32797C5.29243 169.725 3.56221 169.015 2.13733 167.596C0.712442 166.176 0 164.453 0 162.425V141.742C0 138.497 1.11955 135.456 3.35865 132.617L93.4317 8.2125C94.4494 6.59028 95.9761 5.37361 98.0116 4.5625C100.047 3.54861 102.286 3.04167 104.729 3.04167H138.01C140.249 3.04167 141.979 3.75139 143.201 5.17084C144.626 6.3875 145.338 8.11111 145.338 10.3417V133.833H172.513C174.752 133.833 176.584 134.543 178.009 135.963C179.434 137.179 180.146 138.903 180.146 141.133V162.425C180.146 164.453 179.434 166.176 178.009 167.596C176.584 169.015 174.854 169.725 172.818 169.725H145.338V208.658C145.338 210.686 144.626 212.41 143.201 213.829C141.979 215.249 140.249 215.958 138.01 215.958H111.446ZM105.034 135.05V47.1458L42.4412 135.05H105.034Z" fill="#219653"/>
<path d="M290.171 219C263.098 219 242.844 211.497 229.409 196.492C216.178 181.486 208.952 161.817 207.731 137.483C207.527 132.008 207.426 122.681 207.426 109.5C207.426 96.1167 207.527 86.5861 207.731 80.9083C208.749 56.9806 216.077 37.5139 229.715 22.5083C243.353 7.50278 263.505 0 290.171 0C317.04 0 337.294 7.50278 350.932 22.5083C364.57 37.5139 371.796 56.9806 372.61 80.9083C373.017 86.5861 373.221 96.1167 373.221 109.5C373.221 122.681 373.017 132.008 372.61 137.483C371.592 161.817 364.366 181.486 350.932 196.492C337.701 211.497 317.447 219 290.171 219ZM290.171 184.021C302.995 184.021 312.562 179.864 318.872 171.55C325.182 163.033 328.541 151.171 328.948 135.963C329.355 124.201 329.558 115.279 329.558 109.196C329.558 102.504 329.355 93.6833 328.948 82.7333C328.541 67.7278 325.182 55.9667 318.872 47.45C312.562 38.9333 302.995 34.675 290.171 34.675C277.55 34.675 267.983 38.9333 261.469 47.45C255.159 55.9667 251.8 67.7278 251.393 82.7333C251.19 88.2083 251.088 97.0292 251.088 109.196C251.088 121.16 251.19 130.082 251.393 135.963C251.8 151.171 255.159 163.033 261.469 171.55C267.983 179.864 277.55 184.021 290.171 184.021Z" fill="#219653"/>
<path d="M511.3 215.958C509.265 215.958 507.534 215.249 506.11 213.829C504.685 212.41 503.972 210.686 503.972 208.658V169.725H407.182C405.146 169.725 403.416 169.015 401.991 167.596C400.566 166.176 399.854 164.453 399.854 162.425V141.742C399.854 138.497 400.974 135.456 403.213 132.617L493.286 8.2125C494.303 6.59028 495.83 5.37361 497.866 4.5625C499.901 3.54861 502.14 3.04167 504.583 3.04167H537.864C540.103 3.04167 541.833 3.75139 543.055 5.17084C544.48 6.3875 545.192 8.11111 545.192 10.3417V133.833H572.367C574.606 133.833 576.438 134.543 577.863 135.963C579.288 137.179 580 138.903 580 141.133V162.425C580 164.453 579.288 166.176 577.863 167.596C576.438 169.015 574.708 169.725 572.672 169.725H545.192V208.658C545.192 210.686 544.48 212.41 543.055 213.829C541.833 215.249 540.103 215.958 537.864 215.958H511.3ZM504.888 135.05V47.1458L442.295 135.05H504.888Z" fill="#219653"/>
</svg>
