<svg width="549" height="87" viewBox="0 0 549 87" fill="none" xmlns="http://www.w3.org/2000/svg">
<path d="M449.34 61.6946H426.946C421.601 61.6946 417.265 57.3588 417.265 52.0139V34.8468C417.265 31.894 418.584 29.2562 420.666 27.4835H420.672C422.359 26.0418 424.554 25.1714 426.951 25.1714H449.346V61.6946H449.34Z" fill="#219653"/>
<path d="M501.541 80.7732H456.811C449.901 80.7732 444.305 75.1719 444.305 68.2624V18.5983C444.305 11.6887 449.907 6.09277 456.811 6.09277H501.541V80.7732Z" fill="#27AE60"/>
<path d="M511.387 3.24651V83.6137C511.387 85.4078 509.935 86.8602 508.141 86.8602H504.788C502.993 86.8602 501.541 85.4078 501.541 83.6137V3.24651C501.541 1.45239 502.993 0 504.788 0H508.141C509.935 0 511.387 1.45239 511.387 3.24651Z" fill="#105B30"/>
<path d="M511.387 32.2244V19.4946H541.829C545.342 19.4946 548.194 22.346 548.194 25.8595C548.194 29.373 545.342 32.2244 541.829 32.2244H511.387Z" fill="#105B30"/>
<path d="M511.387 67.3704V54.6406H542.592C545.684 54.6406 548.194 57.1503 548.194 60.2419V61.7637C548.194 64.8554 545.684 67.365 542.592 67.365H511.387V67.3704Z" fill="#105B30"/>
<path d="M501.541 80.7728H456.811C449.901 80.7728 444.305 75.1714 444.305 68.2619V18.5978C444.305 11.6882 449.907 6.09229 456.811 6.09229C460.538 59.7238 501.541 64.647 501.541 64.647V80.7728Z" fill="#219653"/>
<path d="M501.542 80.7761V6.09033L497.938 6.09033V80.7761H501.542Z" fill="#123521"/>
<path d="M482.633 80.7733H456.811C449.901 80.7733 444.305 75.172 444.305 68.2625V33.3945C444.305 68.6096 482.633 80.7733 482.633 80.7733Z" fill="#105B30"/>
<path d="M444.303 61.6937V25.1704H441.964V61.6937H444.303Z" fill="#123521"/>
<path d="M515.844 32.2254V19.4956H511.385V32.2254H515.844Z" fill="#123521"/>
<path d="M515.848 67.3699V54.6401H511.389V67.3699H515.848Z" fill="#123521"/>
<path d="M444.305 61.6941H426.951C421.606 61.6941 417.27 57.3583 417.27 52.0133V34.8463C417.27 31.8935 418.589 29.2557 420.671 27.4829H420.677C417.393 54.2399 444.31 58.3248 444.31 58.3248V61.6941H444.305Z" fill="#105B30"/>
<path d="M417.27 37.8149H117V49.0549H417.27V37.8149Z" fill="#27AE60"/>
<path d="M449.34 61.6947H426.946C421.601 61.6947 417.265 57.3588 417.265 52.0139V34.8468C417.265 31.894 418.584 29.2562 420.666 27.4835H420.672C422.359 26.0418 424.554 25.1714 426.951 25.1714H449.346V61.6947H449.34Z" fill="#219653"/>
<path d="M501.541 80.7732H456.811C449.901 80.7732 444.305 75.1719 444.305 68.2624V18.5983C444.305 11.6887 449.907 6.09277 456.811 6.09277H501.541V80.7732Z" fill="#27AE60"/>
<path d="M511.387 3.24651V83.6137C511.387 85.4078 509.935 86.8602 508.141 86.8602H504.788C502.993 86.8602 501.541 85.4078 501.541 83.6137V3.24651C501.541 1.45239 502.993 0 504.788 0H508.141C509.935 0 511.387 1.45239 511.387 3.24651Z" fill="#105B30"/>
<path d="M511.387 32.2244V19.4946H541.829C545.342 19.4946 548.194 22.346 548.194 25.8595C548.194 29.373 545.342 32.2244 541.829 32.2244H511.387Z" fill="#105B30"/>
<path d="M511.387 67.3704V54.6406H542.592C545.684 54.6406 548.194 57.1503 548.194 60.2419V61.7637C548.194 64.8554 545.684 67.365 542.592 67.365H511.387V67.3704Z" fill="#105B30"/>
<path d="M501.541 80.7728H456.811C449.901 80.7728 444.305 75.1714 444.305 68.2619V18.5978C444.305 11.6882 449.907 6.09229 456.811 6.09229C460.538 59.7238 501.541 64.647 501.541 64.647V80.7728Z" fill="#219653"/>
<path d="M501.542 80.7761V6.09033L497.938 6.09033V80.7761H501.542Z" fill="#123521"/>
<path d="M482.633 80.7733H456.811C449.901 80.7733 444.305 75.172 444.305 68.2625V33.3945C444.305 68.6096 482.633 80.7733 482.633 80.7733Z" fill="#105B30"/>
<path d="M444.303 61.6937V25.1704H441.964V61.6937H444.303Z" fill="#123521"/>
<path d="M515.844 32.2254V19.4956H511.385V32.2254H515.844Z" fill="#123521"/>
<path d="M515.848 67.3699V54.6401H511.389V67.3699H515.848Z" fill="#123521"/>
<path d="M444.305 61.6941H426.951C421.606 61.6941 417.27 57.3583 417.27 52.0133V34.8463C417.27 31.8935 418.589 29.2557 420.671 27.4829H420.677C417.393 54.2399 444.31 58.3248 444.31 58.3248V61.6941H444.305Z" fill="#105B30"/>
<path d="M417 38H0V49H417V38Z" fill="#27AE60"/>
</svg>
