<svg width="550" height="87" viewBox="0 0 550 87" fill="none" xmlns="http://www.w3.org/2000/svg">
<path d="M62.0467 61.6947H84.4413C89.7863 61.6947 94.1221 57.3588 94.1221 52.0139V34.8468C94.1221 31.894 92.8032 29.2562 90.7207 27.4835H90.7154C89.028 26.0418 86.8335 25.1714 84.436 25.1714H62.0414V61.6947H62.0467Z" fill="#219653"/>
<path d="M9.84623 80.7732H54.5765C61.486 80.7732 67.082 75.1719 67.082 68.2624V18.5983C67.082 11.6887 61.4807 6.09277 54.5765 6.09277H9.84623V80.7732Z" fill="#27AE60"/>
<path d="M-0.000139729 3.24651V83.6137C-0.000139729 85.4078 1.45222 86.8602 3.24635 86.8602H6.59967C8.3938 86.8602 9.84619 85.4078 9.84619 83.6137V3.24651C9.84619 1.45239 8.3938 0 6.59967 0H3.24635C1.45222 0 -0.000139729 1.45239 -0.000139729 3.24651Z" fill="#105B30"/>
<path d="M9.84623 80.7728H54.5765C61.486 80.7728 67.082 75.1714 67.082 68.2619V18.5978C67.082 11.6882 61.4807 6.09229 54.5765 6.09229C50.8494 59.7238 9.84623 64.647 9.84623 64.647V80.7728Z" fill="#219653"/>
<path d="M9.84473 80.7761L9.84473 6.09033L13.449 6.09033L13.449 80.7761H9.84473Z" fill="#123521"/>
<path d="M28.7539 80.7733H54.5765C61.486 80.7733 67.082 75.172 67.082 68.2625V33.3945C67.082 68.6096 28.7539 80.7733 28.7539 80.7733Z" fill="#105B30"/>
<path d="M67.084 61.6937V25.1704H69.4228V61.6937H67.084Z" fill="#123521"/>
<path d="M67.0825 61.6941H84.4364C89.7814 61.6941 94.1172 57.3583 94.1172 52.0133V34.8463C94.1172 31.8935 92.7983 29.2557 90.7158 27.4829H90.7105C93.9944 54.2399 67.0772 58.3248 67.0772 58.3248V61.6941H67.0825Z" fill="#105B30"/>
<path d="M94 38H550V49H94V38Z" fill="#27AE60"/>
</svg>
