<svg width="35" height="35" viewBox="0 0 35 35" fill="none" xmlns="http://www.w3.org/2000/svg">
<path d="M33.5417 18.9281H1.45833C0.653331 18.9281 0 18.2747 0 17.4697C0 16.6647 0.653331 16.0114 1.45833 16.0114H33.5417C34.3467 16.0114 35 16.6647 35 17.4697C35 18.2747 34.3467 18.9281 33.5417 18.9281Z" fill="#092F33"/>
<path d="M33.5417 7.74742H1.45833C0.653331 7.74742 0 7.09409 0 6.28908C0 5.48408 0.653331 4.83075 1.45833 4.83075H33.5417C34.3467 4.83075 35 5.48408 35 6.28908C35 7.09409 34.3467 7.74742 33.5417 7.74742Z" fill="#092F33"/>
<path d="M33.5417 30.1084H1.45833C0.653331 30.1084 0 29.455 0 28.65C0 27.845 0.653331 27.1917 1.45833 27.1917H33.5417C34.3467 27.1917 35 27.845 35 28.65C35 29.455 34.3467 30.1084 33.5417 30.1084Z" fill="#092F33"/>
</svg>
