<svg width="15" height="16" viewBox="0 0 15 16" fill="none" xmlns="http://www.w3.org/2000/svg">
<path fill-rule="evenodd" clip-rule="evenodd" d="M8.49401 4.011C8.42958 4.01087 8.3658 3.99803 8.30634 3.97322C8.24687 3.94841 8.19289 3.91212 8.14746 3.86642C8.10204 3.82072 8.06608 3.76651 8.04164 3.70689C8.01719 3.64728 8.00475 3.58343 8.00501 3.519C8.00554 2.85398 7.74236 2.21589 7.27315 1.74463C6.80395 1.27336 6.16702 1.00738 5.50201 1.005C4.83709 1.00738 4.20026 1.27339 3.73122 1.74469C3.26217 2.21598 2.99921 2.85407 3.00001 3.519C3.003 3.58514 2.99255 3.6512 2.9693 3.7132C2.94605 3.77519 2.91048 3.83183 2.86473 3.87969C2.81898 3.92756 2.764 3.96565 2.70312 3.99168C2.64224 4.01771 2.57672 4.03113 2.51051 4.03113C2.4443 4.03113 2.37877 4.01771 2.31789 3.99168C2.25701 3.96565 2.20204 3.92756 2.15629 3.87969C2.11054 3.83183 2.07497 3.77519 2.05171 3.7132C2.02846 3.6512 2.01802 3.58514 2.02101 3.519C2.02101 1.59 3.58301 0.0209961 5.50201 0.0209961C7.42201 0.0209961 8.98401 1.59 8.98401 3.519C8.98427 3.58351 8.97179 3.64744 8.94729 3.70713C8.92278 3.76681 8.88673 3.82106 8.8412 3.86677C8.79567 3.91248 8.74157 3.94876 8.68199 3.97351C8.62241 3.99826 8.55853 4.011 8.49401 4.011Z" fill="#B28F58"/>
<path fill-rule="evenodd" clip-rule="evenodd" d="M11.4924 4.011C11.4281 4.01073 11.3644 3.9978 11.3051 3.97293C11.2457 3.94807 11.1918 3.91175 11.1465 3.86607C11.1012 3.82038 11.0653 3.76621 11.0409 3.70666C11.0166 3.64711 11.0042 3.58334 11.0044 3.519C11.0044 2.133 9.88542 1.005 8.51242 1.005C8.44807 1.00473 8.3844 0.9918 8.32505 0.966933C8.26571 0.942065 8.21184 0.905752 8.16652 0.860065C8.12121 0.814379 8.08533 0.760214 8.06095 0.700664C8.03657 0.641113 8.02415 0.577344 8.02442 0.512996C8.02415 0.448648 8.03657 0.384879 8.06095 0.325328C8.08533 0.265778 8.12121 0.211613 8.16652 0.165927C8.21184 0.12024 8.26571 0.0839267 8.32505 0.0590594C8.3844 0.0341921 8.44807 0.0212582 8.51242 0.0209961C10.4244 0.0209961 11.9814 1.59 11.9814 3.519C11.9817 3.64904 11.9303 3.77389 11.8387 3.86613C11.747 3.95837 11.6225 4.01047 11.4924 4.011Z" fill="#B28F58"/>
<path fill-rule="evenodd" clip-rule="evenodd" d="M10 13H15V14H10V13Z" fill="#B28F58"/>
<path fill-rule="evenodd" clip-rule="evenodd" d="M12 11H13V16H12V11Z" fill="#B28F58"/>
<path fill-rule="evenodd" clip-rule="evenodd" d="M13.371 3H12.042V10H13.965V3.565C13.965 3.252 13.698 3 13.371 3Z" fill="#B28F58"/>
<path fill-rule="evenodd" clip-rule="evenodd" d="M8.99997 12H10.951L10.956 3L0.643969 3.061C0.313969 3.061 0.0429688 3.313 0.0429688 3.626V15.4C0.0429688 15.712 0.313969 16 0.643969 16H11C11 16 10.95 15.584 10.951 15H8.99997V12Z" fill="#B28F58"/>
</svg>
